<mxfile host="app.diagrams.net" modified="2021-09-19T05:29:56.588Z" agent="5.0 (Windows NT 10.0; Win64; x64) AppleWebKit/537.36 (KHTML, like Gecko) Chrome/93.0.4577.82 Safari/537.36 Edg/93.0.961.52" etag="GJCZbwaidnPZYWiMb407" version="15.2.9" type="github">
  <diagram id="sjADTmljwn4Sy3IFEtPZ" name="Page-1">
    <mxGraphModel dx="1221" dy="1850" grid="1" gridSize="10" guides="1" tooltips="1" connect="1" arrows="1" fold="1" page="1" pageScale="1" pageWidth="827" pageHeight="1169" math="0" shadow="0">
      <root>
        <mxCell id="0" />
        <mxCell id="1" parent="0" />
        <mxCell id="B-85oY1meeU1Ws7_Kz0d-4" value="" style="whiteSpace=wrap;html=1;aspect=fixed;" vertex="1" parent="1">
          <mxGeometry x="200" y="-1120" width="760" height="760" as="geometry" />
        </mxCell>
        <mxCell id="B-85oY1meeU1Ws7_Kz0d-5" value="Student" style="shape=umlActor;verticalLabelPosition=bottom;verticalAlign=top;html=1;outlineConnect=0;" vertex="1" parent="1">
          <mxGeometry x="80" y="-870" width="50" height="80" as="geometry" />
        </mxCell>
        <mxCell id="B-85oY1meeU1Ws7_Kz0d-6" value="Mentor" style="shape=umlActor;verticalLabelPosition=bottom;verticalAlign=top;html=1;outlineConnect=0;" vertex="1" parent="1">
          <mxGeometry x="80" y="-584" width="50" height="90" as="geometry" />
        </mxCell>
        <mxCell id="B-85oY1meeU1Ws7_Kz0d-8" value="Authenticated user" style="shape=umlActor;verticalLabelPosition=bottom;verticalAlign=top;html=1;outlineConnect=0;" vertex="1" parent="1">
          <mxGeometry x="70" y="-1040" width="50" height="100" as="geometry" />
        </mxCell>
        <mxCell id="B-85oY1meeU1Ws7_Kz0d-10" value="Admin" style="shape=umlActor;verticalLabelPosition=bottom;verticalAlign=top;html=1;outlineConnect=0;" vertex="1" parent="1">
          <mxGeometry x="1040" y="-1050" width="50" height="100" as="geometry" />
        </mxCell>
        <mxCell id="B-85oY1meeU1Ws7_Kz0d-11" value="View profile" style="ellipse;whiteSpace=wrap;html=1;" vertex="1" parent="1">
          <mxGeometry x="230" y="-1110" width="100" height="60" as="geometry" />
        </mxCell>
        <mxCell id="B-85oY1meeU1Ws7_Kz0d-12" value="Logout" style="ellipse;whiteSpace=wrap;html=1;" vertex="1" parent="1">
          <mxGeometry x="330" y="-1070" width="120" height="80" as="geometry" />
        </mxCell>
        <mxCell id="B-85oY1meeU1Ws7_Kz0d-13" value="FPT Blog" style="text;html=1;strokeColor=none;fillColor=none;align=center;verticalAlign=middle;whiteSpace=wrap;rounded=0;" vertex="1" parent="1">
          <mxGeometry x="545" y="-1120" width="70" height="20" as="geometry" />
        </mxCell>
        <mxCell id="B-85oY1meeU1Ws7_Kz0d-14" value="Manage account categories tags" style="ellipse;whiteSpace=wrap;html=1;" vertex="1" parent="1">
          <mxGeometry x="720" y="-1110" width="180" height="80" as="geometry" />
        </mxCell>
        <mxCell id="B-85oY1meeU1Ws7_Kz0d-15" value="Create new mentor account" style="ellipse;whiteSpace=wrap;html=1;" vertex="1" parent="1">
          <mxGeometry x="570" y="-1050" width="160" height="80" as="geometry" />
        </mxCell>
        <mxCell id="B-85oY1meeU1Ws7_Kz0d-16" value="Create categories and tags" style="ellipse;whiteSpace=wrap;html=1;" vertex="1" parent="1">
          <mxGeometry x="730" y="-1000" width="170" height="80" as="geometry" />
        </mxCell>
        <mxCell id="B-85oY1meeU1Ws7_Kz0d-17" value="Login" style="ellipse;whiteSpace=wrap;html=1;" vertex="1" parent="1">
          <mxGeometry x="240" y="-870" width="120" height="80" as="geometry" />
        </mxCell>
        <mxCell id="B-85oY1meeU1Ws7_Kz0d-18" value="Create new post" style="ellipse;whiteSpace=wrap;html=1;" vertex="1" parent="1">
          <mxGeometry x="353" y="-980" width="120" height="80" as="geometry" />
        </mxCell>
        <mxCell id="B-85oY1meeU1Ws7_Kz0d-20" value="Manage post" style="ellipse;whiteSpace=wrap;html=1;" vertex="1" parent="1">
          <mxGeometry x="413" y="-890" width="120" height="80" as="geometry" />
        </mxCell>
        <mxCell id="B-85oY1meeU1Ws7_Kz0d-21" value="Vote on the post" style="ellipse;whiteSpace=wrap;html=1;" vertex="1" parent="1">
          <mxGeometry x="490" y="-980" width="120" height="80" as="geometry" />
        </mxCell>
        <mxCell id="B-85oY1meeU1Ws7_Kz0d-22" value="View post about subject and field" style="ellipse;whiteSpace=wrap;html=1;" vertex="1" parent="1">
          <mxGeometry x="590" y="-920" width="130" height="80" as="geometry" />
        </mxCell>
        <mxCell id="B-85oY1meeU1Ws7_Kz0d-23" value="Comment on the post" style="ellipse;whiteSpace=wrap;html=1;" vertex="1" parent="1">
          <mxGeometry x="600" y="-840" width="120" height="80" as="geometry" />
        </mxCell>
        <mxCell id="B-85oY1meeU1Ws7_Kz0d-24" value="View notification" style="ellipse;whiteSpace=wrap;html=1;" vertex="1" parent="1">
          <mxGeometry x="380" y="-800" width="120" height="80" as="geometry" />
        </mxCell>
        <mxCell id="B-85oY1meeU1Ws7_Kz0d-25" value="Manage report" style="ellipse;whiteSpace=wrap;html=1;" vertex="1" parent="1">
          <mxGeometry x="320" y="-720" width="120" height="80" as="geometry" />
        </mxCell>
        <mxCell id="B-85oY1meeU1Ws7_Kz0d-26" value="Report content violates" style="ellipse;whiteSpace=wrap;html=1;" vertex="1" parent="1">
          <mxGeometry x="520" y="-750" width="120" height="80" as="geometry" />
        </mxCell>
        <mxCell id="B-85oY1meeU1Ws7_Kz0d-27" value="Report bug of the system" style="ellipse;whiteSpace=wrap;html=1;" vertex="1" parent="1">
          <mxGeometry x="480" y="-650" width="120" height="80" as="geometry" />
        </mxCell>
      </root>
    </mxGraphModel>
  </diagram>
</mxfile>
